# AST/ASF file generated using VICON BodyLanguage
# -----------------------------------------------
:version 1.10
:name VICON
:units
  mass 1.0
  length 0.45
  angle deg
:documentation
   .ast/.asf automatically generated from VICON data using
   VICON BodyBuilder and BodyLanguage model FoxedUp or BRILLIANT.MOD
:root
   order TX TY TZ RX RY RZ
   axis XYZ
   position 0 0 0  
   orientation 0 0 0 
:bonedata
  begin
     id 1 
     name lhipjoint
     direction 0.693937 -0.600361 0.397515 
     length 2.37164 
     axis 0 0 0  XYZ
  end
  begin
     id 2 
     name lfemur
     direction 0.34202 -0.939693 0  
     length 6.18497  
     axis 0 0 20  XYZ
    dof rx ry rz
    limits (-160.0 20.0)
           (-70.0 70.0)
           (-60.0 70.0)
  end
  begin
     id 3 
     name ltibia
     direction 0.34202 -0.939693 0   
     length 6.91601   
     axis 0 0 20   XYZ
    dof rx
    limits (-10.0 170.0)
  end
  begin
     id 4 
     name lfoot
     direction 0.0978718 -0.2689 0.958182   
     length 1.81453   
     axis -90 7.62852e-016 20   XYZ
    dof rx rz
    limits (-45.0 90.0)
           (-70.0 20.0)
  end
  begin
     id 5 
     name ltoes
     direction 1.53569e-011 -4.21951e-011 1   
     length 0.912052   
     axis -90 7.62852e-016 20   XYZ
    dof rx
    limits (-90.0 20.0)
  end
  begin
     id 6 
     name rhipjoint
     direction -0.643996 -0.637876 0.422354   
     length 2.23216  
     axis 0 0 0  XYZ 
  end
  begin
     id 7 
     name rfemur
     direction -0.34202 -0.939693 0   
     length 6.15404   
     axis 0 0 -20   XYZ
    dof rx ry rz
    limits (-160.0 20.0)
           (-70.0 70.0)
           (-70.0 60.0)
  end
  begin
     id 8 
     name rtibia
     direction -0.34202 -0.939693 0   
     length 6.86744   
     axis 0 0 -20   XYZ
    dof rx
    limits (-10.0 170.0)
 end
 begin
     id 9 
     name rfoot
     direction -0.118701 -0.326127 0.937844   
     length 1.9243  
     axis -90 -7.62852e-016 -20   XYZ
    dof rx rz
    limits (-45.0 90.0)
           (-20.0 70.0)
  end
  begin
     id 10 
     name rtoes
     direction -1.5356e-011 -4.2181e-011 1   
     length 0.958865   
     axis -90 -7.62852e-016 -20   XYZ
    dof rx
    limits (-90.0 20.0)
  end
  begin
     id 11 
     name lowerback
     direction 0.0310826 0.968686 -0.246334   
     length 2.00021   
     axis 0 0 0   XYZ
    dof rx ry rz
    limits (-20.0 45.0)
           (-30.0 30.0)
           (-30.0 30.0)
  end
  begin
     id 12 
     name upperback
     direction -0.0152834 0.999474 -0.0286152   
     length 2.03728   
     axis 0 0 0   XYZ
    dof rx ry rz
    limits (-20.0 45.0)
           (-30.0 30.0)
           (-30.0 30.0)
  end
  begin
     id 13 
     name thorax
     direction -0.0323701 0.996236 0.0804149   
     length 2.16   
     axis 0 0 0   XYZ
    dof rx ry rz
    limits (-20.0 45.0)
           (-30.0 30.0)
           (-30.0 30.0)
  end
  begin
     id 14 
     name lowerneck
     direction 0.0307935 0.982251 0.185027   
     length 1.43558   
     axis 0 0 0   XYZ
    dof rx ry rz
    limits (-20.0 45.0)
           (-30.0 30.0)
           (-30.0 30.0)
  end
  begin
     id 15 
     name upperneck
     direction -0.0927153 0.994775 0.0427454   
     length 1.44603   
     axis 0 0 0   XYZ
    dof rx ry rz
    limits (-20.0 45.0)
           (-30.0 30.0)
           (-30.0 30.0)
  end
  begin
     id 16
     name head
     direction -0.0341265 0.999406 -0.00472033  
     length 1.45931  
     axis 0 0 0   XYZ
    dof rx ry rz
    limits (-20.0 45.0)
           (-30.0 30.0)
           (-30.0 30.0)
  end
  begin
     id 17 
     name lclavicle
     direction 0.820755 0.555306 -0.134151  
     length 2.66075  
     axis 0 0 0   XYZ
    dof ry rz
    limits (-20.0 10.0)
           (0.0 20.0)
  end
  begin
     id 18 
     name lhumerus
     direction 1 -4.48971e-011 5.24853e-027   
     length 5.0546   
     axis -180 -30 -90   XYZ
    dof rx ry rz
    limits (-60.0 90.0)
           (-90.0 90.0)
           (-90.0 90.0)
  end
  begin
     id 19
     name lradius
     direction 1 -4.48971e-011 2.76575e-028   
     length 3.39013   
     axis -180 -30 -90   XYZ
    dof rx
    limits (-10.0 170.0)
  end
  begin
     id 20
     name lwrist
     direction 1 -4.48939e-011 -2.27826e-027   
     length 1.69507   
     axis 2.17013e-015 90 90   XYZ
    dof ry
    limits (-180.0 0.0)
 end
  begin
     id 21 
     name lhand
     direction 1 -4.49009e-011 -4.55652e-027   
     length 0.572425   
     axis 2.90745e-015 90 90   XYZ
    dof rx rz
    limits (-90.0 90.0)
           (-45.0 45.0)
  end
  begin
     id 22 
     name lfingers
     direction 1 -4.48955e-011 -9.11303e-027   
     length 0.461504   
     axis 5.81489e-015 90 90   XYZ
    dof rx
    limits (0.0 90.0)
  end
  begin
     id 23
     name lthumb
     direction 0.707107 -6.34929e-011 0.707107   
     length 0.66263   
     axis -90 45 2.85299e-015   XYZ
    dof rx rz
    limits (-45.0 45.0)
           (-45.0 45.0)
  end
  begin
     id 24 
     name rclavicle
     direction -0.754477 0.632921 -0.173712   
     length 2.73081  
     axis 0 0 0   XYZ 
    dof ry rz
    limits (-10.0 20.0)
           (-20.0 0.0)
  end
  begin
     id 25 
     name rhumerus
     direction -1 -4.48969e-011 5.1496e-027  
     length 5.0701   
     axis -180 30 90   XYZ
    dof rx ry rz
    limits (-90.0 60.0)
           (-90.0 90.0)
           (-90.0 90.0)
  end
  begin
     id 26 
     name rradius
     direction -1 -4.48967e-011 -7.15624e-028   
     length 3.14957   
     axis -180 30 90   XYZ
    dof rx
    limits (-10.0 170.0)
  end
  begin
     id 27 
     name rwrist
     direction -1 -4.48938e-011 -2.27826e-027   
     length 1.57479   
     axis 2.17013e-015 -90 -90   XYZ
    dof ry
    limits (-180.0 0.0)
  end
  begin
     id 28
     name rhand
     direction -1 -4.49008e-011 -4.55652e-027   
     length 0.718191   
     axis 2.90745e-015 -90 -90   XYZ
    dof rx rz
    limits (-90.0 90.0)
           (-45.0 45.0)
  end
  begin
     id 29
     name rfingers
     direction -1 -4.48953e-011 -9.11303e-027   
     length 0.579024   
     axis 5.81489e-015 -90 -90   XYZ
    dof rx
    limits (0.0 90.0)
  end
  begin
     id 30
     name rthumb
     direction -0.707107 -6.34937e-011 0.707107   
     length 0.831366   
     axis -90 -45 -2.85299e-015   XYZ
    dof rx rz
    limits (-45.0 45.0)
           (-45.0 45.0)
  end
:hierarchy
  begin
    root lhipjoint rhipjoint lowerback
    lhipjoint lfemur
    lfemur ltibia
    ltibia lfoot
    lfoot ltoes
    rhipjoint rfemur
    rfemur rtibia
    rtibia rfoot
    rfoot rtoes
    lowerback upperback
    upperback thorax
    thorax lowerneck lclavicle rclavicle
    lowerneck upperneck
    upperneck head
    lclavicle lhumerus
    lhumerus lradius
    lradius lwrist
    lwrist lhand lthumb
    lhand lfingers
    rclavicle rhumerus
    rhumerus rradius
    rradius rwrist
    rwrist rhand rthumb
    rhand rfingers
  end

#!OML:ASF H:\Male1\Project 1\Capture day 1\Session 1\Male1.ASF
:FULLY-SPECIFIED
:DEGREES
39
root 28.1213 14.9153 0.221396 269.555 -84.3908 -273.332
lowerback 7.9296 1.37741 -6.67919
upperback 5.75389 1.18578 -2.65289
thorax 1.45297 0.33935 0.913773
lowerneck -9.10888 1.90795 6.68855
upperneck 25.3043 0.516141 0.900811
head 9.53088 0.729231 -0.808688
rclavicle -1.00386e-014 3.26007e-014
rhumerus -37.686 -3.49798 -85.0419
rradius 36.8839
rwrist -19.1535
rhand -17.0205 0.907295
rfingers 7.12502
rthumb 9.21559 -28.8713
lclavicle -1.00386e-014 3.26007e-014
lhumerus -32.9087 -1.69437 82.5767
lradius 39.0965
lwrist 5.88818
lhand -21.4574 9.32821
lfingers 7.12502
lthumb 4.93267 39.2508
rfemur -32.5788 10.4633 18.2243
rtibia 60.6635
rfoot -18.3788 -19.6331
rtoes -28.2064
lfemur -2.86041 -9.00315 -34.1267
ltibia 31.4212
lfoot -25.7807 12.5895
ltoes -1.66238
40
root 27.91 14.9106 0.238242 269.892 -84.3319 -273.624
lowerback 7.75532 1.34376 -6.73839
upperback 5.74255 1.15796 -2.56497
thorax 1.5368 0.322248 1.04226
lowerneck -9.11876 1.88092 6.70399
upperneck 25.4626 0.477401 0.834122
head 9.58791 0.706518 -0.839358
rclavicle -9.0447e-015 1.55052e-014
rhumerus -37.8201 -3.66145 -84.807
rradius 36.7383
rwrist -19.2273
rhand -17.0905 0.910906
rfingers 7.12502
rthumb 9.14806 -28.8707
lclavicle -9.0447e-015 1.55052e-014
lhumerus -32.7837 -2.28602 82.8329
lradius 40.2794
lwrist 6.36675
lhand -21.4496 9.59604
lfingers 7.12502
lthumb 4.94022 39.5185
rfemur -33.2299 10.8816 18.0562
rtibia 57.7084
rfoot -18.3596 -19.6727
rtoes -27.3968
lfemur -1.5237 -8.89148 -34.427
ltibia 30.5376
lfoot -26.0452 12.6575
ltoes -1.5299
41
root 27.6974 14.9031 0.254688 269.724 -84.2604 -273.445
lowerback 7.58408 1.29841 -6.8222
upperback 5.75252 1.11322 -2.45635
thorax 1.64211 0.294127 1.20673
lowerneck -9.12713 1.87688 6.65615
upperneck 25.6068 0.487831 0.756949
head 9.64022 0.699542 -0.85766
rclavicle -1.44119e-014 1.15295e-014
rhumerus -37.8976 -3.70597 -84.5745
rradius 36.5471
rwrist -19.2559
rhand -17.1148 0.924609
rfingers 7.12502
rthumb 9.12456 -28.858
lclavicle -1.44119e-014 1.15295e-014
lhumerus -32.6618 -2.71403 83.0661
lradius 41.3651
lwrist 6.67573
lhand -21.321 9.74478
lfingers 7.12502
lthumb 5.06443 39.6643
rfemur -33.7166 11.2719 17.8893
rtibia 54.7038
rfoot -18.3148 -19.7721
rtoes -26.545
lfemur -0.105988 -8.73858 -34.7459
ltibia 29.5668
lfoot -26.2559 12.7606
ltoes -1.46893
42
root 27.4838 14.8914 0.27032 269.236 -84.1696 -272.969
lowerback 7.42075 1.24482 -6.92434
upperback 5.76934 1.05575 -2.34005
thorax 1.75135 0.258334 1.38974
lowerneck -9.15078 1.89403 6.59042
upperneck 25.7663 0.536565 0.65448
head 9.70187 0.706168 -0.877587
rclavicle 4.96962e-017 -2.26615e-014
rhumerus -37.9419 -3.67917 -84.3478
rradius 36.3144
rwrist -19.2104
rhand -17.0932 0.947399
rfingers 7.12502
rthumb 9.14543 -28.8343
lclavicle 4.96962e-017 -2.26615e-014
lhumerus -32.5643 -3.02756 83.2784
lradius 42.3596
lwrist 6.8891
lhand -21.1029 9.76473
lfingers 7.12502
lthumb 5.27496 39.6791
rfemur -34.0822 11.6624 17.7121
rtibia 51.7396
rfoot -18.3371 -20.0098
rtoes -25.7916
lfemur 1.36613 -8.53267 -35.0759
ltibia 28.5302
lfoot -26.4255 12.8525
ltoes -1.55758
43
root 27.2696 14.8751 0.284679 268.628 -84.0358 -272.369
lowerback 7.25687 1.19972 -7.03483
upperback 5.77089 1.00853 -2.2499
thorax 1.84509 0.228443 1.54939
lowerneck -9.17641 1.91346 6.55915
upperneck 25.9474 0.582006 0.543897
head 9.77231 0.713469 -0.906727
rclavicle 4.02539e-015 3.02153e-014
rhumerus -37.9955 -3.69977 -84.128
rradius 36.0394
rwrist -19.069
rhand -17.0405 0.969498
rfingers 7.12502
rthumb 9.19627 -28.81
lclavicle 4.02539e-015 3.02153e-014
lhumerus -32.5201 -3.32993 83.4659
lradius 43.2789
lwrist 7.07432
lhand -20.8358 9.7339
lfingers 7.12502
lthumb 5.53291 39.6417
rfemur -34.3826 12.0744 17.4858
rtibia 48.9183
rfoot -18.5361 -20.428
rtoes -25.1
lfemur 2.85599 -8.24486 -35.4165
ltibia 27.4367
lfoot -26.5524 12.8729
ltoes -1.8235
44
root 27.0546 14.8544 0.297294 268.02 -83.8334 -271.748
lowerback 7.07852 1.17288 -7.16572
upperback 5.74132 0.985056 -2.20789
thorax 1.91342 0.21209 1.6691
lowerneck -9.20594 1.92894 6.60639
upperneck 26.1721 0.60532 0.421719
head 9.86003 0.716646 -0.956054
rclavicle 6.31141e-015 -1.15295e-014
rhumerus -38.0756 -3.8616 -83.9037
rradius 35.6937
rwrist -18.8225
rhand -16.9566 0.998186
rfingers 7.12502
rthumb 9.27717 -28.7777
lclavicle 6.31141e-015 -1.15295e-014
lhumerus -32.5574 -3.66882 83.6259
lradius 44.1374
lwrist 7.25709
lhand -20.5596 9.74457
lfingers 7.12502
lthumb 5.79958 39.6452
rfemur -34.6703 12.5388 17.1649
rtibia 46.3347
rfoot -19.0463 -21.08
rtoes -24.3299
lfemur 4.33782 -7.84246 -35.7694
ltibia 26.2928
lfoot -26.633 12.7517
ltoes -2.12753
45
root 26.8389 14.8303 0.307473 267.506 -83.5491 -271.194
lowerback 6.89181 1.1749 -7.32603
upperback 5.66832 0.998094 -2.22774
thorax 1.93892 0.21659 1.739
lowerneck -9.21705 1.92336 6.75288
upperneck 26.4358 0.577496 0.294523
head 9.95861 0.704764 -1.03035
rclavicle -5.86415e-015 -1.47101e-014
rhumerus -38.1909 -4.2603 -83.6539
rradius 35.2361
rwrist -18.458
rhand -16.8446 1.04768
rfingers 7.12502
rthumb 9.38531 -28.7234
lclavicle -5.86415e-015 -1.47101e-014
lhumerus -32.6926 -4.08664 83.761
lradius 44.9309
lwrist 7.46443
lhand -20.3159 9.80602
lfingers 7.12502
lthumb 6.03483 39.7001
rfemur -34.9758 13.0922 16.7181
rtibia 44.0734
rfoot -20.0022 -21.9781
rtoes -23.1108
lfemur 5.8015 -7.31266 -36.1334
ltibia 25.1017
lfoot -26.653 12.4646
ltoes -2.37253
46
root 26.6226 14.8025 0.315023 267.115 -83.1876 -270.74
lowerback 6.71389 1.1902 -7.53596
upperback 5.55352 1.02432 -2.29029
thorax 1.91508 0.229629 1.79133
lowerneck -9.25288 1.91903 6.99039
upperneck 26.7654 0.535648 0.13066
head 10.0872 0.691928 -1.13543
rclavicle -2.18663e-015 1.98785e-015
rhumerus -38.2998 -4.87101 -83.3513
rradius 34.6104
rwrist -17.9729
rhand -16.7119 1.11278
rfingers 7.12502
rthumb 9.51331 -28.6525
lclavicle -2.18663e-015 1.98785e-015
lhumerus -32.9223 -4.50299 83.8798
lradius 45.6358
lwrist 7.68659
lhand -20.13 9.90438
lfingers 7.12502
lthumb 6.21436 39.7932
rfemur -35.3085 13.76 16.1391
rtibia 42.1853
rfoot -21.3771 -23.1242
rtoes -21.2783
lfemur 7.25056 -6.67193 -36.5101
ltibia 23.8744
lfoot -26.5954 12.0632
ltoes -2.56902
47
root 26.4065 14.7726 0.320137 267.009 -82.782 -270.571
lowerback 6.58349 1.19765 -7.78091
upperback 5.40471 1.03234 -2.36773
thorax 1.83084 0.235861 1.84794
lowerneck -9.30704 1.91853 7.25371
upperneck 27.1306 0.493828 -0.0491764
head 10.2334 0.680526 -1.25154
rclavicle -1.27222e-014 3.00165e-014
rhumerus -38.3631 -5.65885 -82.9695
rradius 33.7843
rwrist -17.3619
rhand -16.5745 1.14162
rfingers 7.12502
rthumb 9.64591 -28.6175
lclavicle -1.27222e-014 3.00165e-014
lhumerus -33.2339 -4.83612 83.9875
lradius 46.231
lwrist 7.87489
lhand -20.0036 10.0146
lfingers 7.12502
lthumb 6.33639 39.8998
rfemur -35.6447 14.5274 15.4651
rtibia 40.6895
rfoot -23.2737 -24.4804
rtoes -18.5056
lfemur 8.69777 -5.98898 -36.8917
ltibia 22.6385
lfoot -26.4449 11.6349
ltoes -2.74626
